<svg width="104" height="105" viewBox="0 0 104 105" fill="none" xmlns="http://www.w3.org/2000/svg">
<rect y="0.419067" width="104" height="104" rx="52" fill="#F2EEFF"/>
<path d="M30 30.4191L35 36.4191V54.4191L32 61.4191H74" stroke="#3A1E68" stroke-width="3.5" stroke-linecap="round" stroke-linejoin="round"/>
<path d="M35 36.4191H70L64 54.4191H35" stroke="#3A1E68" stroke-width="3.5" stroke-linecap="round" stroke-linejoin="round"/>
<path d="M36 74.4191C38.2091 74.4191 40 72.6282 40 70.4191C40 68.2099 38.2091 66.4191 36 66.4191C33.7909 66.4191 32 68.2099 32 70.4191C32 72.6282 33.7909 74.4191 36 74.4191Z" stroke="#3A1E68" stroke-width="3.5" stroke-linecap="round" stroke-linejoin="round"/>
<path d="M68 74.4191C70.2091 74.4191 72 72.6282 72 70.4191C72 68.2099 70.2091 66.4191 68 66.4191C65.7909 66.4191 64 68.2099 64 70.4191C64 72.6282 65.7909 74.4191 68 74.4191Z" stroke="#3A1E68" stroke-width="3.5" stroke-linecap="round" stroke-linejoin="round"/>
</svg>
