<svg width="104" height="103" viewBox="0 0 104 103" fill="none" xmlns="http://www.w3.org/2000/svg">
<rect x="-0.000244141" y="0.419067" width="104.001" height="102.006" rx="51.0031" fill="#F2EEFF"/>
<path d="M37.9998 53.4191L45.9998 30.4191C45.9998 30.4191 50.9998 30.4191 50.9998 36.4191V47.4191H68.9998C69.7633 47.4149 70.5119 47.6306 71.1562 48.0402C71.8006 48.4499 72.3134 49.0363 72.6336 49.7295C72.9538 50.4227 73.0677 51.1933 72.9619 51.9495C72.8561 52.7057 72.5349 53.4154 72.0368 53.9941C72.6928 54.3787 73.2246 54.9435 73.5692 55.6214C73.9137 56.2994 74.0564 57.062 73.9804 57.8186C73.9044 58.5753 73.6128 59.2942 73.1403 59.8901C72.6678 60.4859 72.0342 60.9336 71.3148 61.1801C71.6698 61.7044 71.8948 62.3058 71.971 62.9344C72.0472 63.563 71.9725 64.2008 71.753 64.7948C71.5336 65.3887 71.1757 65.9218 70.709 66.3499C70.2424 66.7779 69.6804 67.0886 69.0698 67.2561C69.5037 67.669 69.8038 68.2026 69.9313 68.7879C70.0588 69.3732 70.0078 69.9833 69.7849 70.5392C69.562 71.0952 69.1774 71.5716 68.6809 71.9067C68.1844 72.2418 67.5988 72.4203 66.9998 72.4191H50.9998C46.4843 72.5161 42.016 71.485 37.9998 69.4191" stroke="#3A1E68" stroke-width="3.5" stroke-linecap="round" stroke-linejoin="round"/>
<path d="M35.9998 49.4191H31.9998C30.8952 49.4191 29.9998 50.3145 29.9998 51.4191V69.4191C29.9998 70.5236 30.8952 71.4191 31.9998 71.4191H35.9998C37.1043 71.4191 37.9998 70.5236 37.9998 69.4191V51.4191C37.9998 50.3145 37.1043 49.4191 35.9998 49.4191Z" stroke="#3A1E68" stroke-width="3.5" stroke-linecap="round" stroke-linejoin="round"/>
</svg>
