<svg xmlns="http://www.w3.org/2000/svg" xmlns:xlink="http://www.w3.org/1999/xlink" viewBox="0 0 783.26 140.69"><defs><style>.cls-1{fill:#25a5f1;}.cls-2{fill:url(#linear-gradient);}.cls-3{fill:url(#linear-gradient-2);}</style><linearGradient id="linear-gradient" x1="52.65" y1="71.35" x2="101.96" y2="130.11" gradientUnits="userSpaceOnUse"><stop offset="0" stop-color="#c6b5fa"/><stop offset="1" stop-color="#25a5f1"/></linearGradient><linearGradient id="linear-gradient-2" y1="47.16" x2="155.8" y2="47.16" gradientUnits="userSpaceOnUse"><stop offset="0" stop-color="#00ffc4"/><stop offset="1" stop-color="#25a5f1"/></linearGradient></defs><g id="Layer_2" data-name="Layer 2"><g id="Layer_1-2" data-name="Layer 1"><path class="cls-1" d="M222.29,38.06H195.21V19.44h77V38.06h-26.8v75.59H222.85l-.56-75.59Z"/><path class="cls-1" d="M261.21,79A35.29,35.29,0,0,1,264,64.57c2-4.23,4.23-8.18,7.61-11.28a36.09,36.09,0,0,1,11.28-7.62A33.27,33.27,0,0,1,297,42.85a29.11,29.11,0,0,1,13,2.82c3.66,1.69,7.33,3.95,9.87,7.34,2.82,2.82,4.79,6.76,6.49,11a38,38,0,0,1,2.54,14.1v3.38a18.13,18.13,0,0,1-.29,4H283.49a15,15,0,0,0,5.92,9c3.1,2.26,7.62,3.39,12.41,3.39a30.21,30.21,0,0,0,9.87-1.69,69.55,69.55,0,0,0,10.72-4.8v18c-8.46,3.39-16.36,5.36-24.54,5.36A35.83,35.83,0,0,1,283.21,112c-4.23-2-8.47-4.23-11.57-7.61A33.09,33.09,0,0,1,264,92.77C262.05,89.11,261.21,84.31,261.21,79Zm45.69-7a16.43,16.43,0,0,0-3.39-8.46,10.41,10.41,0,0,0-7.61-3.1,15.25,15.25,0,0,0-8.47,2.82c-2.25,2-3.38,4.79-4.22,8.46l23.69.28Z"/><path class="cls-1" d="M337.07,45.11h22.29V49.9c5.92-4.23,12.12-6.48,18.89-6.48a23.73,23.73,0,0,1,9.87,2,25.24,25.24,0,0,1,7.9,5.08,22.13,22.13,0,0,1,5.08,8.18,29.47,29.47,0,0,1,2,10.15v44.85H380.51V72.75a9.36,9.36,0,0,0-2.82-7,8.74,8.74,0,0,0-6.77-2.82c-4.23,0-8.18,2-11.56,5.36v45.41H337.07V45.11Z"/><path class="cls-1" d="M480.91,113.65H458.63v-3.39a29.53,29.53,0,0,1-16.07,5.36,27.87,27.87,0,0,1-12.69-2.82,32,32,0,0,1-9.88-7.62,33.8,33.8,0,0,1-6.48-11.28A38.76,38.76,0,0,1,411,79.24a39.8,39.8,0,0,1,2.54-14.67c1.69-4.23,3.38-8.46,6.48-11.28a38.52,38.52,0,0,1,9.88-7.62,27.87,27.87,0,0,1,12.69-2.82c5.64,0,11,2,16.07,5.36V19.11h22.28ZM434.1,79.52c0,5.07,1.13,9,3.38,12.13a12.16,12.16,0,0,0,9.87,4.51,15.56,15.56,0,0,0,10.72-4.8V67.67c-3.39-3.1-7.05-4.79-10.72-4.79a12.62,12.62,0,0,0-9.87,4.51A22.07,22.07,0,0,0,434.1,79.52Z"/><path class="cls-1" d="M489.66,79.52a42.42,42.42,0,0,1,2.82-14.67c2-4.23,4.23-8.46,7.61-11.28A39.22,39.22,0,0,1,511.94,46a35.85,35.85,0,0,1,14.67-2.82A35,35,0,0,1,541.27,46c4.51,2,8.46,4.23,11.57,7.62s5.92,6.77,7.61,11.28a34.13,34.13,0,0,1,2.82,14.67,41.13,41.13,0,0,1-2.82,14.66c-2,4.23-4.23,8.46-7.61,11.57a45.74,45.74,0,0,1-11.57,7.61,35.7,35.7,0,0,1-14.66,2.82,34.8,34.8,0,0,1-14.67-2.82,37.23,37.23,0,0,1-11.85-7.61,33.09,33.09,0,0,1-7.61-11.57A43.7,43.7,0,0,1,489.66,79.52Zm26.79-12.41c-2.82,3.1-4,7.61-4,12.69s1.13,9.31,4,12.69c2.82,3.1,5.93,4.8,10.16,4.8a13,13,0,0,0,10.15-4.8c2.82-3.1,4-7.61,4-12.69a20.6,20.6,0,0,0-4-12.69c-2.82-3.1-5.93-4.8-10.15-4.8S519.27,64,516.45,67.11Z"/><path class="cls-1" d="M572.3,19.44h36.38a36.86,36.86,0,0,1,24.54,9,31.37,31.37,0,0,1,7,9.87A30.8,30.8,0,0,1,642.81,51a31.76,31.76,0,0,1-2.55,12.69,30.15,30.15,0,0,1-7,9.87A29,29,0,0,1,622.5,79.8a36.52,36.52,0,0,1-13.82,2.26h-14.1v32.15H572.3Zm22.56,44h11c3.95,0,7.61-1.13,9.87-3.38,2.82-2.54,3.67-5.36,3.67-9.31s-1.13-7-3.67-9.31c-2.82-2.54-5.92-3.38-9.87-3.38h-11Z"/><path class="cls-1" d="M685.67,109.7a33,33,0,0,1-18.61,5.92,21.89,21.89,0,0,1-8.74-1.41,24.89,24.89,0,0,1-7.06-4.23,19.15,19.15,0,0,1-4.51-6.77,21.73,21.73,0,0,1-1.69-8.46,19.8,19.8,0,0,1,2.54-9.87,25.25,25.25,0,0,1,6.77-7.9,37.64,37.64,0,0,1,10.72-5.08,50.4,50.4,0,0,1,13.54-2h3.1c1.12,0,2.53.28,3.66.28V69.08c0-2.54-1.13-4.23-2.82-5.92-2-1.69-4.51-2.26-7.9-2.26a34.41,34.41,0,0,0-11.56,2A55.91,55.91,0,0,0,651,68V49.9A63.56,63.56,0,0,1,677.49,44a34.17,34.17,0,0,1,12.13,2c3.39,1.41,6.77,3.11,9,5.65a21.87,21.87,0,0,1,5.92,8.46,25.94,25.94,0,0,1,2,10.71v43.15H685.67V109.7ZM667.34,91.08a7.22,7.22,0,0,0,2.26,5.36c1.41,1.41,3.38,2,5.92,2,3.39,0,7.05-1.69,10.72-5.07V82.62c-1.13,0-2-.28-2.82-.28H680.6a14.84,14.84,0,0,0-9,2.54C668.47,86.29,667.34,88.54,667.34,91.08Z"/><path class="cls-1" d="M747.91,134.21H726.19l10-23.39L710.21,45.11h22.85L746.88,84,760.7,45.11h22.56Z"/><path class="cls-2" d="M53.3,74.18a20.88,20.88,0,1,1,41.75,0v45.64a20.88,20.88,0,0,1-41.75,0Z"/><path class="cls-3" d="M143.71,86.25A52.67,52.67,0,0,0,103.13,0L91.1.12H33.25L21,.1A21,21,0,0,0,21,42l23,0h58.94a10.94,10.94,0,0,1,10.94,11,10.34,10.34,0,0,1-2,6.38c-.27.35-1.13,1.36-1.13,1.36a20.88,20.88,0,0,0,16.53,33.62,20.49,20.49,0,0,0,14.63-6C142,88.15,143.34,86.69,143.71,86.25Z"/></g></g></svg>